# xmcd CD database file
#
# Track frame offsets:
#	150
#	17611
#	35895
#	56233
#	71619
#	88548
#	106865
#	123473
#	148135
#	165415
#	187384
#	208120
#	235250
#	253064
#	275170
#
# Disc length: 3950 seconds
#
# Revision: 0
# Processed by: cddbd v1.5.2PL0 Copyright (c) Steve Scherf et al.
# Submitted via: CDex 1.51
#
DISCID=e90f6c0f
DTITLE=Various Artist - STTW-3113-80's
DYEAR=1900
DGENRE=Blues
TTITLE0=Bad manners - Special Brew
TTITLE1=Pretenders The - Don't Get Me Wrong
TTITLE2=Police The - Every Breath You Take
TTITLE3=Yazoo - Only You
TTITLE4=Stephen Tin Tin Duffy - Kiss Me
TTITLE5=Martha and The Muffins - Echo Beach
TTITLE6=Dead Or Alive - You Spin Me Round (like a record)
TTITLE7=Sade - Smooth Operator
TTITLE8=Dexy's Midnight Runners - Geno
TTITLE9=Transvision Vamp - Baby I Don't Care
TTITLE10=David Bowie - Let's Dance
TTITLE11=Madonna Like A Prayer
TTITLE12=Erasure - Sometimes
TTITLE13=Bryan Ferry - Slave To Love
TTITLE14=Abba - Super Trouper
EXTD=
EXTT0=
EXTT1=
EXTT2=
EXTT3=
EXTT4=
EXTT5=
EXTT6=
EXTT7=
EXTT8=
EXTT9=
EXTT10=
EXTT11=
EXTT12=
EXTT13=
EXTT14=
PLAYORDER=
